<svg width="47" height="51" viewBox="0 0 47 51" fill="none" xmlns="http://www.w3.org/2000/svg">
<rect x="1" y="1" width="45" height="49" stroke="black" stroke-width="2"/>
<path d="M26.7063 13.6504H22.2531V41H26.7063V13.6504ZM8.15157 41H12.8645L18.0227 31.0918C18.0969 31.0918 18.1835 31.1042 18.2824 31.1289C18.3566 31.1289 18.4803 31.1289 18.6535 31.1289C18.8267 31.1289 19.0865 31.1289 19.4328 31.1289C19.7544 31.1289 20.1874 31.1289 20.7316 31.1289V27.8633H18.2082C17.6639 27.8633 17.1197 27.7767 16.5754 27.6035C16.0311 27.4056 15.5363 27.0964 15.091 26.6758C14.6457 26.2552 14.287 25.6738 14.0148 24.9316C13.7427 24.1647 13.6066 23.2246 13.6066 22.1113C13.6066 21.666 13.6685 21.1589 13.7922 20.5898C13.9159 19.9961 14.1757 19.4395 14.5715 18.9199C14.9426 18.3757 15.4745 17.9303 16.1672 17.584C16.8599 17.2129 17.7753 17.0273 18.9133 17.0273H20.7316V13.6504H18.8391C17.6763 13.6504 16.5259 13.8359 15.3879 14.207C14.2499 14.5781 13.2356 15.1348 12.3449 15.877C11.4296 16.6191 10.6997 17.5221 10.1555 18.5859C9.58646 19.625 9.30196 20.8001 9.30196 22.1113C9.30196 24.0905 9.75964 25.7728 10.675 27.1582C11.5904 28.5436 12.8273 29.5703 14.3859 30.2383L8.15157 41Z" fill="black"/>
<path d="M22.0514 13.6504H26.5045V41H22.0514V13.6504ZM29.9186 13.6504C31.0813 13.6504 32.2317 13.8359 33.3697 14.207C34.5077 14.5781 35.5221 15.1348 36.4127 15.877C37.3281 16.6191 38.0579 17.5221 38.6021 18.5859C39.1712 19.625 39.4557 20.8001 39.4557 22.1113C39.4557 23.4967 39.2206 24.7585 38.7506 25.8965C38.2805 27.0098 37.6249 27.9499 36.7838 28.7168C35.9426 29.4837 34.9283 30.0775 33.7408 30.498C32.5533 30.9186 31.2421 31.1289 29.8072 31.1289H28.026V27.8633H30.5865C31.1308 27.8633 31.6627 27.7767 32.1822 27.6035C32.7265 27.4056 33.2213 27.0964 33.6666 26.6758C34.1119 26.2552 34.4706 25.6738 34.7428 24.9316C35.0149 24.1647 35.151 23.2246 35.151 22.1113C35.151 21.666 35.0891 21.1589 34.9654 20.5898C34.8417 19.9961 34.582 19.4395 34.1861 18.9199C33.815 18.3757 33.2831 17.9303 32.5904 17.584C31.8977 17.2129 30.9824 17.0273 29.8443 17.0273H28.026V13.6504H29.9186Z" fill="black"/>
</svg>
